<?xml version="1.0" encoding="UTF-8" standalone="no"?>
<!-- Created with Inkscape (http://www.inkscape.org/) -->

<svg
   xmlns:osb="http://www.openswatchbook.org/uri/2009/osb"
   xmlns:dc="http://purl.org/dc/elements/1.1/"
   xmlns:cc="http://creativecommons.org/ns#"
   xmlns:rdf="http://www.w3.org/1999/02/22-rdf-syntax-ns#"
   xmlns:svg="http://www.w3.org/2000/svg"
   xmlns="http://www.w3.org/2000/svg"
   xmlns:sodipodi="http://sodipodi.sourceforge.net/DTD/sodipodi-0.dtd"
   xmlns:inkscape="http://www.inkscape.org/namespaces/inkscape"
   width="210mm"
   height="297mm"
   viewBox="0 0 210 297"
   version="1.1"
   id="svg8"
   inkscape:version="0.92.5 (2060ec1f9f, 2020-04-08)"
   sodipodi:docname="donate.svg">
  <defs
     id="defs2">
    <linearGradient
       id="linearGradient2296"
       osb:paint="solid">
      <stop
         style="stop-color:#000000;stop-opacity:1;"
         offset="0"
         id="stop2294" />
    </linearGradient>
  </defs>
  <sodipodi:namedview
     id="base"
     pagecolor="#4b4b4b"
     bordercolor="#666666"
     borderopacity="1.0"
     inkscape:pageopacity="0"
     inkscape:pageshadow="2"
     inkscape:zoom="2"
     inkscape:cx="-405.96092"
     inkscape:cy="-1086.1878"
     inkscape:document-units="mm"
     inkscape:current-layer="g2554"
     showgrid="false"
     showborder="false"
     inkscape:window-width="1366"
     inkscape:window-height="768"
     inkscape:window-x="0"
     inkscape:window-y="0"
     inkscape:window-maximized="1"
     showguides="true"
     inkscape:guide-bbox="true"
     inkscape:snap-global="true"
     inkscape:snap-bbox="true"
     inkscape:bbox-paths="true"
     inkscape:bbox-nodes="true"
     inkscape:snap-bbox-edge-midpoints="true"
     inkscape:snap-bbox-midpoints="true" />
  <metadata
     id="metadata5">
    <rdf:RDF>
      <cc:Work
         rdf:about="">
        <dc:format>image/svg+xml</dc:format>
        <dc:type
           rdf:resource="http://purl.org/dc/dcmitype/StillImage" />
        <dc:title />
      </cc:Work>
    </rdf:RDF>
  </metadata>
  <g
     inkscape:label="Layer 1"
     inkscape:groupmode="layer"
     id="layer1">
    <text
       xml:space="preserve"
       style="font-style:italic;font-variant:normal;font-weight:bold;font-stretch:normal;font-size:22.57777786px;line-height:1.25;font-family:Verdana;-inkscape-font-specification:'Verdana, Bold Italic';font-variant-ligatures:normal;font-variant-caps:normal;font-variant-numeric:normal;font-feature-settings:normal;text-align:start;letter-spacing:0px;word-spacing:0px;writing-mode:lr-tb;text-anchor:start;fill:#000000;fill-opacity:1;stroke:none;stroke-width:0.26458332"
       x="-786.1181"
       y="-79.285133"
       id="text12"><tspan
         sodipodi:role="line"
         id="tspan10"
         x="-786.1181"
         y="-79.285133"
         style="font-style:italic;font-variant:normal;font-weight:bold;font-stretch:normal;font-size:22.57777786px;font-family:Verdana;-inkscape-font-specification:'Verdana, Bold Italic';font-variant-ligatures:normal;font-variant-caps:normal;font-variant-numeric:normal;font-feature-settings:normal;text-align:start;writing-mode:lr-tb;text-anchor:start;stroke-width:0.26458332">Donate</tspan></text>
    <text
       xml:space="preserve"
       style="font-style:italic;font-variant:normal;font-weight:bold;font-stretch:normal;font-size:22.57777786px;line-height:1.25;font-family:Verdana;-inkscape-font-specification:'Verdana, Bold Italic';font-variant-ligatures:normal;font-variant-caps:normal;font-variant-numeric:normal;font-feature-settings:normal;text-align:start;letter-spacing:0px;word-spacing:0px;writing-mode:lr-tb;text-anchor:start;fill:#000000;fill-opacity:1;stroke:none;stroke-width:0.26458332"
       x="-772.76385"
       y="-33.576897"
       id="text16"><tspan
         sodipodi:role="line"
         id="tspan14"
         x="-772.76385"
         y="-33.576897"
         style="font-style:italic;font-variant:normal;font-weight:bold;font-stretch:normal;font-size:22.57777786px;font-family:Verdana;-inkscape-font-specification:'Verdana, Bold Italic';font-variant-ligatures:normal;font-variant-caps:normal;font-variant-numeric:normal;font-feature-settings:normal;text-align:start;writing-mode:lr-tb;text-anchor:start;stroke-width:0.26458332">DONATE</tspan></text>
    <text
       id="text20"
       y="-98.528542"
       x="-672.79584"
       style="font-style:italic;font-variant:normal;font-weight:normal;font-stretch:normal;font-size:22.57777786px;line-height:1.25;font-family:Verdana;-inkscape-font-specification:'Verdana, Italic';font-variant-ligatures:normal;font-variant-caps:normal;font-variant-numeric:normal;font-feature-settings:normal;text-align:start;letter-spacing:0px;word-spacing:0px;writing-mode:lr-tb;text-anchor:start;fill:#000000;fill-opacity:1;stroke:none;stroke-width:0.26458332"
       xml:space="preserve"><tspan
         style="font-style:italic;font-variant:normal;font-weight:normal;font-stretch:normal;font-size:22.57777786px;font-family:Verdana;-inkscape-font-specification:'Verdana, Italic';font-variant-ligatures:normal;font-variant-caps:normal;font-variant-numeric:normal;font-feature-settings:normal;text-align:start;writing-mode:lr-tb;text-anchor:start;stroke-width:0.26458332"
         y="-98.528542"
         x="-672.79584"
         id="tspan18"
         sodipodi:role="line">Donate</tspan></text>
    <text
       id="text24"
       y="-50.147606"
       x="-641.80182"
       style="font-style:italic;font-variant:normal;font-weight:normal;font-stretch:normal;font-size:22.57777786px;line-height:1.25;font-family:Verdana;-inkscape-font-specification:'Verdana, Italic';font-variant-ligatures:normal;font-variant-caps:normal;font-variant-numeric:normal;font-feature-settings:normal;text-align:start;letter-spacing:0px;word-spacing:0px;writing-mode:lr-tb;text-anchor:start;fill:#000000;fill-opacity:1;stroke:none;stroke-width:0.26458332"
       xml:space="preserve"><tspan
         style="font-style:italic;font-variant:normal;font-weight:normal;font-stretch:normal;font-size:22.57777786px;font-family:Verdana;-inkscape-font-specification:'Verdana, Italic';font-variant-ligatures:normal;font-variant-caps:normal;font-variant-numeric:normal;font-feature-settings:normal;text-align:start;writing-mode:lr-tb;text-anchor:start;stroke-width:0.26458332"
         y="-50.147606"
         x="-641.80182"
         id="tspan22"
         sodipodi:role="line">DONATE</tspan></text>
    <rect
       style="fill:#000000;fill-opacity:1;stroke-width:0.26458332"
       id="rect52"
       width="353.86487"
       height="75.370003"
       x="-659.62115"
       y="26.523237" />
    <rect
       y="153.52322"
       x="-659.62115"
       height="75.370003"
       width="353.86487"
       id="rect54"
       style="fill:#000000;fill-opacity:1;stroke-width:0.26458332" />
    <g
       id="g901"
       transform="translate(-95.25,-102.43155)">
      <path
         sodipodi:nodetypes="ccssccscccc"
         style="opacity:1;stroke-width:0.26458332"
         id="path2"
         d="m -854.97562,257.61743 c -0.92604,5.08 -4.60375,28.76021 -5.68854,35.45416 -0.0794,0.47625 -0.26459,0.66146 -0.79375,0.66146 h -19.73792 c -2.01083,0 -3.46604,-1.74625 -3.20146,-3.67771 l 15.50458,-98.39854 c 0.39688,-2.54 2.6723,-4.47145 5.29167,-4.47145 40.29604,0 43.68271,-0.97896 53.975,3.01625 15.90146,6.16479 17.35667,21.03437 11.64167,37.12104 -5.68854,16.56291 -19.18229,23.68021 -37.06813,23.89187 -11.48291,0.18521 -18.38854,-1.85208 -19.92312,6.40292 z"
         inkscape:connector-curvature="0" />
      <path
         sodipodi:nodetypes="cccsccssccscc"
         inkscape:connector-curvature="0"
         d="m -789.9675,219.54389 c -0.47625,-0.34396 -0.66146,-0.47625 -0.79375,0.34396 -0.52916,3.01625 -1.34937,5.95312 -2.32833,8.89 -10.55688,30.10958 -39.81979,27.4902 -54.10729,27.4902 -1.61396,0 -2.67229,0.87313 -2.88396,2.48709 -5.97958,37.14749 -7.17021,44.89978 -7.17021,44.89978 -0.26458,1.87855 0.92604,3.41313 2.80458,3.41313 h 16.80105 c 2.27541,0 4.15395,-1.66688 4.60375,-3.94229 0.1852,-1.42875 -0.29105,1.61396 3.81,-24.15646 1.21708,-5.82083 3.78354,-5.21229 7.75229,-5.21229 18.78541,0 33.44333,-7.62 37.80896,-29.71271 1.71979,-9.2075 1.21708,-18.89125 -6.29709,-24.50041 z"
         id="path92"
         style="opacity:1;fill:#ffffff;fill-opacity:1;stroke-width:0.26458332" />
    </g>
    <g
       transform="translate(-118.68452,54.806549)"
       id="g907">
      <path
         inkscape:connector-curvature="0"
         d="m -854.97562,257.61743 c -0.92604,5.08 -4.60375,28.76021 -5.68854,35.45416 -0.0794,0.47625 -0.26459,0.66146 -0.79375,0.66146 h -19.73792 c -2.01083,0 -3.46604,-1.74625 -3.20146,-3.67771 l 15.50458,-98.39854 c 0.39688,-2.54 2.6723,-4.47145 5.29167,-4.47145 40.29604,0 43.68271,-0.97896 53.975,3.01625 15.90146,6.16479 17.35667,21.03437 11.64167,37.12104 -5.68854,16.56291 -19.18229,23.68021 -37.06813,23.89187 -11.48291,0.18521 -18.38854,-1.85208 -19.92312,6.40292 z"
         id="path903"
         style="opacity:1;fill:#230c88;fill-opacity:1;stroke:none;stroke-width:0.26458332;stroke-opacity:1"
         sodipodi:nodetypes="ccssccscccc" />
      <path
         style="opacity:1;fill:#1091e6;fill-opacity:1;stroke-width:0.26458332"
         id="path905"
         d="m -789.9675,219.54389 c -0.47625,-0.34396 -0.66146,-0.47625 -0.79375,0.34396 -0.52916,3.01625 -1.34937,5.95312 -2.32833,8.89 -10.55688,30.10958 -39.81979,27.4902 -54.10729,27.4902 -1.61396,0 -2.67229,0.87313 -2.88396,2.48709 -5.97958,37.14749 -7.17021,44.89978 -7.17021,44.89978 -0.26458,1.87855 0.92604,3.41313 2.80458,3.41313 h 16.80105 c 2.27541,0 4.15395,-1.66688 4.60375,-3.94229 0.1852,-1.42875 -0.29105,1.61396 3.81,-24.15646 1.21708,-5.82083 3.78354,-5.21229 7.75229,-5.21229 18.78541,0 33.44333,-7.62 37.80896,-29.71271 1.71979,-9.2075 1.21708,-18.89125 -6.29709,-24.50041 z"
         inkscape:connector-curvature="0"
         sodipodi:nodetypes="cccsccssccscc" />
    </g>
    <g
       id="g2487"
       transform="translate(14.822749)">
      <text
         xml:space="preserve"
         style="font-style:italic;font-variant:normal;font-weight:bold;font-stretch:normal;font-size:50.79999924px;line-height:1.25;font-family:Verdana;-inkscape-font-specification:'Verdana, Bold Italic';font-variant-ligatures:normal;font-variant-caps:normal;font-variant-numeric:normal;font-feature-settings:normal;text-align:start;letter-spacing:0px;word-spacing:0px;writing-mode:lr-tb;text-anchor:start;fill:#003085;fill-opacity:1;stroke:none;stroke-width:0.26458332"
         x="-557.57031"
         y="82.241249"
         id="text50"><tspan
           sodipodi:role="line"
           id="tspan48"
           x="-557.57031"
           y="82.241249"
           style="font-style:italic;font-variant:normal;font-weight:bold;font-stretch:normal;font-size:50.79999924px;font-family:Verdana;-inkscape-font-specification:'Verdana, Bold Italic';font-variant-ligatures:normal;font-variant-caps:normal;font-variant-numeric:normal;font-feature-settings:normal;text-align:start;writing-mode:lr-tb;text-anchor:start;fill:#003085;fill-opacity:1;stroke-width:0.26458332">Donate</tspan></text>
      <g
         transform="matrix(0.45672121,0,0,0.45672121,-236.31855,-48.635585)"
         id="g2345">
        <path
           inkscape:connector-curvature="0"
           d="m -854.97562,257.61743 c -0.92604,5.08 -4.60375,28.76021 -5.68854,35.45416 -0.0794,0.47625 -0.26459,0.66146 -0.79375,0.66146 h -19.73792 c -2.01083,0 -3.46604,-1.74625 -3.20146,-3.67771 l 15.50458,-98.39854 c 0.39688,-2.54 2.6723,-4.47145 5.29167,-4.47145 40.29604,0 43.68271,-0.97896 53.975,3.01625 15.90146,6.16479 17.35667,21.03437 11.64167,37.12104 -5.68854,16.56291 -19.18229,23.68021 -37.06813,23.89187 -11.48291,0.18521 -18.38854,-1.85208 -19.92312,6.40292 z"
           id="path2341"
           style="opacity:1;fill:#230c88;fill-opacity:1;stroke:none;stroke-width:0.26458332;stroke-opacity:1"
           sodipodi:nodetypes="ccssccscccc" />
        <path
           style="opacity:1;fill:#1091e6;fill-opacity:1;stroke-width:0.26458332"
           id="path2343"
           d="m -789.9675,219.54389 c -0.47625,-0.34396 -0.66146,-0.47625 -0.79375,0.34396 -0.52916,3.01625 -1.34937,5.95312 -2.32833,8.89 -10.55688,30.10958 -39.81979,27.4902 -54.10729,27.4902 -1.61396,0 -2.67229,0.87313 -2.88396,2.48709 -5.97958,37.14749 -7.17021,44.89978 -7.17021,44.89978 -0.26458,1.87855 0.92604,3.41313 2.80458,3.41313 h 16.80105 c 2.27541,0 4.15395,-1.66688 4.60375,-3.94229 0.1852,-1.42875 -0.29105,1.61396 3.81,-24.15646 1.21708,-5.82083 3.78354,-5.21229 7.75229,-5.21229 18.78541,0 33.44333,-7.62 37.80896,-29.71271 1.71979,-9.2075 1.21708,-18.89125 -6.29709,-24.50041 z"
           inkscape:connector-curvature="0"
           sodipodi:nodetypes="cccsccssccscc" />
      </g>
    </g>
    <text
       xml:space="preserve"
       style="font-style:italic;font-variant:normal;font-weight:bold;font-stretch:normal;font-size:50.79999924px;line-height:1.25;font-family:Verdana;-inkscape-font-specification:'Verdana, Bold Italic';font-variant-ligatures:normal;font-variant-caps:normal;font-variant-numeric:normal;font-feature-settings:normal;text-align:start;letter-spacing:0px;word-spacing:0px;writing-mode:lr-tb;text-anchor:start;fill:#019cde;fill-opacity:1;stroke:none;stroke-width:0.26458332"
       x="-547.66125"
       y="209.24123"
       id="text60"><tspan
         sodipodi:role="line"
         id="tspan58"
         x="-547.66125"
         y="209.24123"
         style="font-style:italic;font-variant:normal;font-weight:bold;font-stretch:normal;font-size:50.79999924px;font-family:Verdana;-inkscape-font-specification:'Verdana, Bold Italic';font-variant-ligatures:normal;font-variant-caps:normal;font-variant-numeric:normal;font-feature-settings:normal;text-align:start;writing-mode:lr-tb;text-anchor:start;fill:#019cde;fill-opacity:1;stroke-width:0.26458332">Donate</tspan></text>
    <g
       transform="matrix(0.45672121,0,0,0.45672121,-216.58211,78.364401)"
       id="g2351">
      <path
         inkscape:connector-curvature="0"
         d="m -854.97562,257.61743 c -0.92604,5.08 -4.60375,28.76021 -5.68854,35.45416 -0.0794,0.47625 -0.26459,0.66146 -0.79375,0.66146 h -19.73792 c -2.01083,0 -3.46604,-1.74625 -3.20146,-3.67771 l 15.50458,-98.39854 c 0.39688,-2.54 2.6723,-4.47145 5.29167,-4.47145 40.29604,0 43.68271,-0.97896 53.975,3.01625 15.90146,6.16479 17.35667,21.03437 11.64167,37.12104 -5.68854,16.56291 -19.18229,23.68021 -37.06813,23.89187 -11.48291,0.18521 -18.38854,-1.85208 -19.92312,6.40292 z"
         id="path2347"
         style="opacity:1;fill:#230c88;fill-opacity:1;stroke:none;stroke-width:0.26458332;stroke-opacity:1"
         sodipodi:nodetypes="ccssccscccc" />
      <path
         style="opacity:1;fill:#1091e6;fill-opacity:1;stroke-width:0.26458332"
         id="path2349"
         d="m -789.9675,219.54389 c -0.47625,-0.34396 -0.66146,-0.47625 -0.79375,0.34396 -0.52916,3.01625 -1.34937,5.95312 -2.32833,8.89 -10.55688,30.10958 -39.81979,27.4902 -54.10729,27.4902 -1.61396,0 -2.67229,0.87313 -2.88396,2.48709 -5.97958,37.14749 -7.17021,44.89978 -7.17021,44.89978 -0.26458,1.87855 0.92604,3.41313 2.80458,3.41313 h 16.80105 c 2.27541,0 4.15395,-1.66688 4.60375,-3.94229 0.1852,-1.42875 -0.29105,1.61396 3.81,-24.15646 1.21708,-5.82083 3.78354,-5.21229 7.75229,-5.21229 18.78541,0 33.44333,-7.62 37.80896,-29.71271 1.71979,-9.2075 1.21708,-18.89125 -6.29709,-24.50041 z"
         inkscape:connector-curvature="0"
         sodipodi:nodetypes="cccsccssccscc" />
    </g>
    <rect
       y="26.523237"
       x="-260.85501"
       height="75.370003"
       width="353.86487"
       id="rect2377"
       style="fill:#000000;fill-opacity:1;stroke-width:0.26458332" />
    <g
       id="g2435"
       transform="translate(7.1027395)">
      <text
         id="text2381"
         y="82.241249"
         x="-158.80418"
         style="font-style:italic;font-variant:normal;font-weight:bold;font-stretch:normal;font-size:50.79999924px;line-height:1.25;font-family:Verdana;-inkscape-font-specification:'Verdana, Bold Italic';font-variant-ligatures:normal;font-variant-caps:normal;font-variant-numeric:normal;font-feature-settings:normal;text-align:start;letter-spacing:0px;word-spacing:0px;writing-mode:lr-tb;text-anchor:start;fill:#003085;fill-opacity:1;stroke:none;stroke-width:0.26458332"
         xml:space="preserve"><tspan
           style="font-style:italic;font-variant:normal;font-weight:bold;font-stretch:normal;font-size:50.79999924px;font-family:Verdana;-inkscape-font-specification:'Verdana, Bold Italic';font-variant-ligatures:normal;font-variant-caps:normal;font-variant-numeric:normal;font-feature-settings:normal;text-align:start;writing-mode:lr-tb;text-anchor:start;fill:#003085;fill-opacity:1;stroke-width:0.26458332"
           y="82.241249"
           x="-158.80418"
           id="tspan2379"
           sodipodi:role="line">Donate</tspan></text>
      <g
         id="g2405"
         transform="matrix(0.31989841,0,0,0.31989841,56.877662,-15.68339)">
        <path
           sodipodi:nodetypes="ccssccscccc"
           style="opacity:1;fill:#230c88;fill-opacity:1;stroke:none;stroke-width:0.26458332;stroke-opacity:1"
           id="path2401"
           d="m -854.97562,257.61743 c -0.92604,5.08 -4.60375,28.76021 -5.68854,35.45416 -0.0794,0.47625 -0.26459,0.66146 -0.79375,0.66146 h -19.73792 c -2.01083,0 -3.46604,-1.74625 -3.20146,-3.67771 l 15.50458,-98.39854 c 0.39688,-2.54 2.6723,-4.47145 5.29167,-4.47145 40.29604,0 43.68271,-0.97896 53.975,3.01625 15.90146,6.16479 17.35667,21.03437 11.64167,37.12104 -5.68854,16.56291 -19.18229,23.68021 -37.06813,23.89187 -11.48291,0.18521 -18.38854,-1.85208 -19.92312,6.40292 z"
           inkscape:connector-curvature="0" />
        <path
           sodipodi:nodetypes="cccsccssccscc"
           inkscape:connector-curvature="0"
           d="m -789.9675,219.54389 c -0.47625,-0.34396 -0.66146,-0.47625 -0.79375,0.34396 -0.52916,3.01625 -1.34937,5.95312 -2.32833,8.89 -10.55688,30.10958 -39.81979,27.4902 -54.10729,27.4902 -1.61396,0 -2.67229,0.87313 -2.88396,2.48709 -5.97958,37.14749 -7.17021,44.89978 -7.17021,44.89978 -0.26458,1.87855 0.92604,3.41313 2.80458,3.41313 h 16.80105 c 2.27541,0 4.15395,-1.66688 4.60375,-3.94229 0.1852,-1.42875 -0.29105,1.61396 3.81,-24.15646 1.21708,-5.82083 3.78354,-5.21229 7.75229,-5.21229 18.78541,0 33.44333,-7.62 37.80896,-29.71271 1.71979,-9.2075 1.21708,-18.89125 -6.29709,-24.50041 z"
           id="path2403"
           style="opacity:1;fill:#1091e6;fill-opacity:1;stroke-width:0.26458332" />
      </g>
    </g>
    <rect
       style="fill:#000000;fill-opacity:1;stroke-width:0.26458332"
       id="rect2411"
       width="353.86487"
       height="75.370003"
       x="-260.85501"
       y="152.01134" />
    <g
       id="g2428"
       transform="translate(7.1027395)">
      <text
         xml:space="preserve"
         style="font-style:italic;font-variant:normal;font-weight:bold;font-stretch:normal;font-size:50.79999924px;line-height:1.25;font-family:Verdana;-inkscape-font-specification:'Verdana, Bold Italic';font-variant-ligatures:normal;font-variant-caps:normal;font-variant-numeric:normal;font-feature-settings:normal;text-align:start;letter-spacing:0px;word-spacing:0px;writing-mode:lr-tb;text-anchor:start;fill:#1091e6;fill-opacity:1;stroke:none;stroke-width:0.26458332"
         x="-158.80418"
         y="207.72934"
         id="text2415"><tspan
           sodipodi:role="line"
           id="tspan2413"
           x="-158.80418"
           y="207.72934"
           style="font-style:italic;font-variant:normal;font-weight:bold;font-stretch:normal;font-size:50.79999924px;font-family:Verdana;-inkscape-font-specification:'Verdana, Bold Italic';font-variant-ligatures:normal;font-variant-caps:normal;font-variant-numeric:normal;font-feature-settings:normal;text-align:start;writing-mode:lr-tb;text-anchor:start;fill:#1091e6;fill-opacity:1;stroke-width:0.26458332">Donate</tspan></text>
      <g
         transform="matrix(0.31989841,0,0,0.31989841,56.877662,109.80471)"
         id="g2421">
        <path
           inkscape:connector-curvature="0"
           d="m -854.97562,257.61743 c -0.92604,5.08 -4.60375,28.76021 -5.68854,35.45416 -0.0794,0.47625 -0.26459,0.66146 -0.79375,0.66146 h -19.73792 c -2.01083,0 -3.46604,-1.74625 -3.20146,-3.67771 l 15.50458,-98.39854 c 0.39688,-2.54 2.6723,-4.47145 5.29167,-4.47145 40.29604,0 43.68271,-0.97896 53.975,3.01625 15.90146,6.16479 17.35667,21.03437 11.64167,37.12104 -5.68854,16.56291 -19.18229,23.68021 -37.06813,23.89187 -11.48291,0.18521 -18.38854,-1.85208 -19.92312,6.40292 z"
           id="path2417"
           style="opacity:1;fill:#230c88;fill-opacity:1;stroke:none;stroke-width:0.26458332;stroke-opacity:1"
           sodipodi:nodetypes="ccssccscccc" />
        <path
           style="opacity:1;fill:#1091e6;fill-opacity:1;stroke-width:0.26458332"
           id="path2419"
           d="m -789.9675,219.54389 c -0.47625,-0.34396 -0.66146,-0.47625 -0.79375,0.34396 -0.52916,3.01625 -1.34937,5.95312 -2.32833,8.89 -10.55688,30.10958 -39.81979,27.4902 -54.10729,27.4902 -1.61396,0 -2.67229,0.87313 -2.88396,2.48709 -5.97958,37.14749 -7.17021,44.89978 -7.17021,44.89978 -0.26458,1.87855 0.92604,3.41313 2.80458,3.41313 h 16.80105 c 2.27541,0 4.15395,-1.66688 4.60375,-3.94229 0.1852,-1.42875 -0.29105,1.61396 3.81,-24.15646 1.21708,-5.82083 3.78354,-5.21229 7.75229,-5.21229 18.78541,0 33.44333,-7.62 37.80896,-29.71271 1.71979,-9.2075 1.21708,-18.89125 -6.29709,-24.50041 z"
           inkscape:connector-curvature="0"
           sodipodi:nodetypes="cccsccssccscc" />
      </g>
    </g>
    <rect
       style="fill:#000000;fill-opacity:1;stroke-width:0.26458332"
       id="rect2494"
       width="353.86487"
       height="75.370003"
       x="-659.62115"
       y="272.96368" />
    <text
       id="text2498"
       y="328.68167"
       x="-547.66125"
       style="font-style:italic;font-variant:normal;font-weight:bold;font-stretch:normal;font-size:50.79999924px;line-height:1.25;font-family:Verdana;-inkscape-font-specification:'Verdana, Bold Italic';font-variant-ligatures:normal;font-variant-caps:normal;font-variant-numeric:normal;font-feature-settings:normal;text-align:start;letter-spacing:0px;word-spacing:0px;writing-mode:lr-tb;text-anchor:start;fill:#ffffff;fill-opacity:1;stroke:none;stroke-width:0.26458332"
       xml:space="preserve"><tspan
         style="font-style:italic;font-variant:normal;font-weight:bold;font-stretch:normal;font-size:50.79999924px;font-family:Verdana;-inkscape-font-specification:'Verdana, Bold Italic';font-variant-ligatures:normal;font-variant-caps:normal;font-variant-numeric:normal;font-feature-settings:normal;text-align:start;writing-mode:lr-tb;text-anchor:start;fill:#ffffff;fill-opacity:1;stroke-width:0.26458332"
         y="328.68167"
         x="-547.66125"
         id="tspan2496"
         sodipodi:role="line">Donate</tspan></text>
    <g
       id="g2504"
       transform="matrix(0.45672121,0,0,0.45672121,-216.58211,197.80488)">
      <path
         sodipodi:nodetypes="ccssccscccc"
         style="opacity:1;fill:#230c88;fill-opacity:1;stroke:none;stroke-width:0.26458332;stroke-opacity:1"
         id="path2500"
         d="m -854.97562,257.61743 c -0.92604,5.08 -4.60375,28.76021 -5.68854,35.45416 -0.0794,0.47625 -0.26459,0.66146 -0.79375,0.66146 h -19.73792 c -2.01083,0 -3.46604,-1.74625 -3.20146,-3.67771 l 15.50458,-98.39854 c 0.39688,-2.54 2.6723,-4.47145 5.29167,-4.47145 40.29604,0 43.68271,-0.97896 53.975,3.01625 15.90146,6.16479 17.35667,21.03437 11.64167,37.12104 -5.68854,16.56291 -19.18229,23.68021 -37.06813,23.89187 -11.48291,0.18521 -18.38854,-1.85208 -19.92312,6.40292 z"
         inkscape:connector-curvature="0" />
      <path
         sodipodi:nodetypes="cccsccssccscc"
         inkscape:connector-curvature="0"
         d="m -789.9675,219.54389 c -0.47625,-0.34396 -0.66146,-0.47625 -0.79375,0.34396 -0.52916,3.01625 -1.34937,5.95312 -2.32833,8.89 -10.55688,30.10958 -39.81979,27.4902 -54.10729,27.4902 -1.61396,0 -2.67229,0.87313 -2.88396,2.48709 -5.97958,37.14749 -7.17021,44.89978 -7.17021,44.89978 -0.26458,1.87855 0.92604,3.41313 2.80458,3.41313 h 16.80105 c 2.27541,0 4.15395,-1.66688 4.60375,-3.94229 0.1852,-1.42875 -0.29105,1.61396 3.81,-24.15646 1.21708,-5.82083 3.78354,-5.21229 7.75229,-5.21229 18.78541,0 33.44333,-7.62 37.80896,-29.71271 1.71979,-9.2075 1.21708,-18.89125 -6.29709,-24.50041 z"
         id="path2502"
         style="opacity:1;fill:#1091e6;fill-opacity:1;stroke-width:0.26458332" />
    </g>
    <g
       id="g2526">
      <rect
         ry="18.142857"
         style="fill:#000000;fill-opacity:1;stroke-width:0.26458332"
         id="rect2506"
         width="353.86487"
         height="75.370003"
         x="-276.3533"
         y="406.01129" />
      <text
         id="text2510"
         y="461.72928"
         x="-164.3934"
         style="font-style:italic;font-variant:normal;font-weight:bold;font-stretch:normal;font-size:50.79999924px;line-height:1.25;font-family:Verdana;-inkscape-font-specification:'Verdana, Bold Italic';font-variant-ligatures:normal;font-variant-caps:normal;font-variant-numeric:normal;font-feature-settings:normal;text-align:start;letter-spacing:0px;word-spacing:0px;writing-mode:lr-tb;text-anchor:start;fill:#ffffff;fill-opacity:1;stroke:none;stroke-width:0.26458332"
         xml:space="preserve"><tspan
           style="font-style:italic;font-variant:normal;font-weight:bold;font-stretch:normal;font-size:50.79999924px;font-family:Verdana;-inkscape-font-specification:'Verdana, Bold Italic';font-variant-ligatures:normal;font-variant-caps:normal;font-variant-numeric:normal;font-feature-settings:normal;text-align:start;writing-mode:lr-tb;text-anchor:start;fill:#ffffff;fill-opacity:1;stroke-width:0.26458332"
           y="461.72928"
           x="-164.3934"
           id="tspan2508"
           sodipodi:role="line">Donate</tspan></text>
      <g
         id="g2516"
         transform="matrix(0.45672121,0,0,0.45672121,166.68575,330.8525)">
        <path
           sodipodi:nodetypes="ccssccscccc"
           style="opacity:1;fill:#230c88;fill-opacity:1;stroke:none;stroke-width:0.26458332;stroke-opacity:1"
           id="path2512"
           d="m -854.97562,257.61743 c -0.92604,5.08 -4.60375,28.76021 -5.68854,35.45416 -0.0794,0.47625 -0.26459,0.66146 -0.79375,0.66146 h -19.73792 c -2.01083,0 -3.46604,-1.74625 -3.20146,-3.67771 l 15.50458,-98.39854 c 0.39688,-2.54 2.6723,-4.47145 5.29167,-4.47145 40.29604,0 43.68271,-0.97896 53.975,3.01625 15.90146,6.16479 17.35667,21.03437 11.64167,37.12104 -5.68854,16.56291 -19.18229,23.68021 -37.06813,23.89187 -11.48291,0.18521 -18.38854,-1.85208 -19.92312,6.40292 z"
           inkscape:connector-curvature="0" />
        <path
           sodipodi:nodetypes="cccsccssccscc"
           inkscape:connector-curvature="0"
           d="m -789.9675,219.54389 c -0.47625,-0.34396 -0.66146,-0.47625 -0.79375,0.34396 -0.52916,3.01625 -1.34937,5.95312 -2.32833,8.89 -10.55688,30.10958 -39.81979,27.4902 -54.10729,27.4902 -1.61396,0 -2.67229,0.87313 -2.88396,2.48709 -5.97958,37.14749 -7.17021,44.89978 -7.17021,44.89978 -0.26458,1.87855 0.92604,3.41313 2.80458,3.41313 h 16.80105 c 2.27541,0 4.15395,-1.66688 4.60375,-3.94229 0.1852,-1.42875 -0.29105,1.61396 3.81,-24.15646 1.21708,-5.82083 3.78354,-5.21229 7.75229,-5.21229 18.78541,0 33.44333,-7.62 37.80896,-29.71271 1.71979,-9.2075 1.21708,-18.89125 -6.29709,-24.50041 z"
           id="path2514"
           style="opacity:1;fill:#1091e6;fill-opacity:1;stroke-width:0.26458332" />
      </g>
    </g>
    <g
       id="g2540"
       transform="matrix(0.16049871,0,0,0.16049871,-105.64152,501.99714)"
       inkscape:export-xdpi="96"
       inkscape:export-ydpi="96">
      <rect
         y="406.01129"
         x="-276.3533"
         height="75.370003"
         width="353.86487"
         id="rect2528"
         style="fill:#000000;fill-opacity:1;stroke-width:0.26458332"
         ry="18.142857" />
      <text
         xml:space="preserve"
         style="font-style:italic;font-variant:normal;font-weight:bold;font-stretch:normal;font-size:50.79999924px;line-height:1.25;font-family:Verdana;-inkscape-font-specification:'Verdana, Bold Italic';font-variant-ligatures:normal;font-variant-caps:normal;font-variant-numeric:normal;font-feature-settings:normal;text-align:start;letter-spacing:0px;word-spacing:0px;writing-mode:lr-tb;text-anchor:start;fill:#ffffff;fill-opacity:1;stroke:none;stroke-width:0.26458332"
         x="-164.3934"
         y="461.72928"
         id="text2532"><tspan
           sodipodi:role="line"
           id="tspan2530"
           x="-164.3934"
           y="461.72928"
           style="font-style:italic;font-variant:normal;font-weight:bold;font-stretch:normal;font-size:50.79999924px;font-family:Verdana;-inkscape-font-specification:'Verdana, Bold Italic';font-variant-ligatures:normal;font-variant-caps:normal;font-variant-numeric:normal;font-feature-settings:normal;text-align:start;writing-mode:lr-tb;text-anchor:start;fill:#ffffff;fill-opacity:1;stroke-width:0.26458332">Donate</tspan></text>
      <g
         transform="matrix(0.45672121,0,0,0.45672121,166.68575,330.8525)"
         id="g2538">
        <path
           inkscape:connector-curvature="0"
           d="m -854.97562,257.61743 c -0.92604,5.08 -4.60375,28.76021 -5.68854,35.45416 -0.0794,0.47625 -0.26459,0.66146 -0.79375,0.66146 h -19.73792 c -2.01083,0 -3.46604,-1.74625 -3.20146,-3.67771 l 15.50458,-98.39854 c 0.39688,-2.54 2.6723,-4.47145 5.29167,-4.47145 40.29604,0 43.68271,-0.97896 53.975,3.01625 15.90146,6.16479 17.35667,21.03437 11.64167,37.12104 -5.68854,16.56291 -19.18229,23.68021 -37.06813,23.89187 -11.48291,0.18521 -18.38854,-1.85208 -19.92312,6.40292 z"
           id="path2534"
           style="opacity:1;fill:#230c88;fill-opacity:1;stroke:none;stroke-width:0.26458332;stroke-opacity:1"
           sodipodi:nodetypes="ccssccscccc" />
        <path
           style="opacity:1;fill:#1091e6;fill-opacity:1;stroke-width:0.26458332"
           id="path2536"
           d="m -789.9675,219.54389 c -0.47625,-0.34396 -0.66146,-0.47625 -0.79375,0.34396 -0.52916,3.01625 -1.34937,5.95312 -2.32833,8.89 -10.55688,30.10958 -39.81979,27.4902 -54.10729,27.4902 -1.61396,0 -2.67229,0.87313 -2.88396,2.48709 -5.97958,37.14749 -7.17021,44.89978 -7.17021,44.89978 -0.26458,1.87855 0.92604,3.41313 2.80458,3.41313 h 16.80105 c 2.27541,0 4.15395,-1.66688 4.60375,-3.94229 0.1852,-1.42875 -0.29105,1.61396 3.81,-24.15646 1.21708,-5.82083 3.78354,-5.21229 7.75229,-5.21229 18.78541,0 33.44333,-7.62 37.80896,-29.71271 1.71979,-9.2075 1.21708,-18.89125 -6.29709,-24.50041 z"
           inkscape:connector-curvature="0"
           sodipodi:nodetypes="cccsccssccscc" />
      </g>
    </g>
    <g
       inkscape:export-ydpi="96"
       inkscape:export-xdpi="96"
       transform="matrix(0.16049871,0,0,0.16049871,-105.64152,525.0159)"
       id="g2554">
      <rect
         ry="20.920626"
         style="fill:#000000;fill-opacity:1;stroke-width:0.28411683"
         id="rect2542"
         width="353.86487"
         height="86.909554"
         x="-276.3533"
         y="400.24152"
         inkscape:export-xdpi="96"
         inkscape:export-ydpi="96" />
      <text
         id="text2546"
         y="461.72928"
         x="-164.3934"
         style="font-style:italic;font-variant:normal;font-weight:bold;font-stretch:normal;font-size:50.79999924px;line-height:1.25;font-family:Verdana;-inkscape-font-specification:'Verdana, Bold Italic';font-variant-ligatures:normal;font-variant-caps:normal;font-variant-numeric:normal;font-feature-settings:normal;text-align:start;letter-spacing:0px;word-spacing:0px;writing-mode:lr-tb;text-anchor:start;fill:#ffffff;fill-opacity:1;stroke:none;stroke-width:0.26458332"
         xml:space="preserve"><tspan
           style="font-style:italic;font-variant:normal;font-weight:bold;font-stretch:normal;font-size:50.79999924px;font-family:Verdana;-inkscape-font-specification:'Verdana, Bold Italic';font-variant-ligatures:normal;font-variant-caps:normal;font-variant-numeric:normal;font-feature-settings:normal;text-align:start;writing-mode:lr-tb;text-anchor:start;fill:#ffffff;fill-opacity:1;stroke-width:0.26458332"
           y="461.72928"
           x="-164.3934"
           id="tspan2544"
           sodipodi:role="line">Donate</tspan></text>
      <g
         id="g2552"
         transform="matrix(0.45672121,0,0,0.45672121,166.68575,330.8525)">
        <path
           sodipodi:nodetypes="ccssccscccc"
           style="opacity:1;fill:#230c88;fill-opacity:1;stroke:none;stroke-width:0.26458332;stroke-opacity:1"
           id="path2548"
           d="m -854.97562,257.61743 c -0.92604,5.08 -4.60375,28.76021 -5.68854,35.45416 -0.0794,0.47625 -0.26459,0.66146 -0.79375,0.66146 h -19.73792 c -2.01083,0 -3.46604,-1.74625 -3.20146,-3.67771 l 15.50458,-98.39854 c 0.39688,-2.54 2.6723,-4.47145 5.29167,-4.47145 40.29604,0 43.68271,-0.97896 53.975,3.01625 15.90146,6.16479 17.35667,21.03437 11.64167,37.12104 -5.68854,16.56291 -19.18229,23.68021 -37.06813,23.89187 -11.48291,0.18521 -18.38854,-1.85208 -19.92312,6.40292 z"
           inkscape:connector-curvature="0" />
        <path
           sodipodi:nodetypes="cccsccssccscc"
           inkscape:connector-curvature="0"
           d="m -789.9675,219.54389 c -0.47625,-0.34396 -0.66146,-0.47625 -0.79375,0.34396 -0.52916,3.01625 -1.34937,5.95312 -2.32833,8.89 -10.55688,30.10958 -39.81979,27.4902 -54.10729,27.4902 -1.61396,0 -2.67229,0.87313 -2.88396,2.48709 -5.97958,37.14749 -7.17021,44.89978 -7.17021,44.89978 -0.26458,1.87855 0.92604,3.41313 2.80458,3.41313 h 16.80105 c 2.27541,0 4.15395,-1.66688 4.60375,-3.94229 0.1852,-1.42875 -0.29105,1.61396 3.81,-24.15646 1.21708,-5.82083 3.78354,-5.21229 7.75229,-5.21229 18.78541,0 33.44333,-7.62 37.80896,-29.71271 1.71979,-9.2075 1.21708,-18.89125 -6.29709,-24.50041 z"
           id="path2550"
           style="opacity:1;fill:#1091e6;fill-opacity:1;stroke-width:0.26458332" />
      </g>
    </g>
  </g>
</svg>
